<svg xmlns="http://www.w3.org/2000/svg" viewBox="0 0 920 384" font-family="'Segoe UI',system-ui,Arial,sans-serif">
  <defs>
    <linearGradient id="prog" gradientUnits="userSpaceOnUse" x1="40" y1="330" x2="876" y2="330">
      <stop offset="0" stop-color="#16a34a"/><stop offset="0.5" stop-color="#2563eb"/><stop offset="1" stop-color="#7c3aed"/>
    </linearGradient>
    <marker id="ap" markerWidth="10" markerHeight="10" refX="7" refY="3" orient="auto"><path d="M0,0 L7,3 L0,6 Z" fill="#7c3aed"/></marker>
    <marker id="ag" markerWidth="9" markerHeight="9" refX="6" refY="3" orient="auto"><path d="M0,0 L6,3 L0,6 Z" fill="#94a3b8"/></marker>
  </defs>

  <rect x="2" y="2" width="916" height="380" rx="14" fill="#f7f9fc" stroke="#cbd5e1"/>
  <text x="28" y="38" font-size="17" font-weight="700" fill="#1e293b">From etched boards to professional EDA</text>

  <!-- Stage 1 -->
  <rect x="28" y="64" width="264" height="214" rx="10" fill="#ffffff" stroke="#16a34a" stroke-width="2"/>
  <rect x="28" y="64" width="264" height="42" rx="10" fill="#16a34a"/>
  <rect x="28" y="92" width="264" height="14" fill="#16a34a"/>
  <text x="160" y="92" text-anchor="middle" font-size="17" font-weight="700" fill="#ffffff">PAD2PAD + photo-etch</text>
  <text x="160" y="132" text-anchor="middle" font-size="12.5" font-weight="700" fill="#065f46">self-taught hobbyist</text>
  <text x="44" y="160" font-size="12" fill="#334155">• home photo-etching / toner-transfer</text>
  <text x="44" y="184" font-size="12" fill="#334155">• single- &amp; double-sided layout</text>
  <text x="44" y="208" font-size="12" fill="#334155">• <tspan font-weight="700">470+ boards</tspan> over the years</text>
  <text x="44" y="232" font-size="12" fill="#334155">• RF · oscillators · instruments</text>
  <text x="44" y="256" font-size="11.5" fill="#64748b">learned the fundamentals by doing</text>

  <!-- Stage 2 -->
  <rect x="328" y="64" width="264" height="214" rx="10" fill="#ffffff" stroke="#2563eb" stroke-width="2"/>
  <rect x="328" y="64" width="264" height="42" rx="10" fill="#2563eb"/>
  <rect x="328" y="92" width="264" height="14" fill="#2563eb"/>
  <text x="460" y="92" text-anchor="middle" font-size="17" font-weight="700" fill="#ffffff">KiCad</text>
  <text x="460" y="132" text-anchor="middle" font-size="12.5" font-weight="700" fill="#1e40af">my own engineering projects</text>
  <text x="344" y="160" font-size="12" fill="#334155">• open-source professional EDA</text>
  <text x="344" y="184" font-size="12" fill="#334155">• schematic → multilayer → Gerber</text>
  <text x="344" y="208" font-size="12" fill="#334155">• design-rule / footprint discipline</text>
  <text x="344" y="232" font-size="12" fill="#334155">• e.g. the UAV LoRa transponder</text>
  <text x="344" y="256" font-size="11.5" fill="#64748b">hobby skills → real toolchain</text>

  <!-- Stage 3 -->
  <rect x="628" y="64" width="264" height="214" rx="10" fill="#ffffff" stroke="#7c3aed" stroke-width="2"/>
  <rect x="628" y="64" width="264" height="42" rx="10" fill="#7c3aed"/>
  <rect x="628" y="92" width="264" height="14" fill="#7c3aed"/>
  <text x="760" y="92" text-anchor="middle" font-size="17" font-weight="700" fill="#ffffff">CADSTAR</text>
  <text x="760" y="132" text-anchor="middle" font-size="12.5" font-weight="700" fill="#5b21b6">professional · at Leonardo</text>
  <text x="644" y="160" font-size="12" fill="#334155">• enterprise EDA (Zuken)</text>
  <text x="644" y="184" font-size="12" fill="#334155">• multilayer · RF / high-speed</text>
  <text x="644" y="208" font-size="12" fill="#334155">• high-reliability · DFM</text>
  <text x="644" y="232" font-size="12" fill="#334155">• radar-subsystem boards</text>
  <text x="644" y="256" font-size="11.5" fill="#64748b">design → integration → validation</text>

  <!-- connectors -->
  <text x="310" y="176" text-anchor="middle" font-size="22" fill="#94a3b8">›</text>
  <text x="610" y="176" text-anchor="middle" font-size="22" fill="#94a3b8">›</text>

  <!-- progression arrow -->
  <line x1="40" y1="330" x2="876" y2="330" stroke="url(#prog)" stroke-width="5" marker-end="url(#ap)"/>
  <text x="44" y="356" font-size="12" fill="#16a34a" font-weight="600">DIY · hobby</text>
  <text x="460" y="356" text-anchor="middle" font-size="12" fill="#64748b">~20 years — growing complexity &amp; rigor</text>
  <text x="876" y="356" text-anchor="end" font-size="12" fill="#7c3aed" font-weight="600">enterprise · production</text>
</svg>
